# xmcd
#
# Track frame offsets: 
#        150
#        18310
#        30130
#        41285
#        55027
#        73377
#        88475
#        104332
#        124145
#        144847
#        160077
#        171912
#        183220
#        197172
#        213300
#        226780
#
# Disc length: 3197 seconds
#
# Revision: 1
# Processed by: cddbd v1.5.1PL2 Copyright (c) Steve Scherf et al.
# Submitted via: ExactAudioCopy v0.95b4
#
DISCID=d00c7b10
DTITLE=Bobby Goldsboro - All-Time Greatest Hits (incl. LP Round Up Sal
DTITLE=oon (1982) complete)
DYEAR=1992
DGENRE=Country
TTITLE0=Honey (1968)
TTITLE1=Watching Scotty Grow (1970 - 10 We Gotta Start Lovin UAS 6777)
TTITLE2=Little Things (1965 - 01 Little Things UAS 6425)
TTITLE3=Goodbye Marie (1980 - 01 Bobby Goldsboro JZ 36822)
TTITLE4=Alice Doesn't Love Here Anymore (1980 - 06 Bobby Goldsboro JZ 
TTITLE4=36822)
TTITLE5=Love Ain't Never Hurt Nobody (1980 - 02 Bobby Goldsboro JZ 368
TTITLE5=22)
TTITLE6=The Round-Up Saloon (1982 - 01 Round Up Saloon FZ 37734)
TTITLE7=Lucy And The Stranger (1982 - 06 Round Up Saloon FZ 37734)
TTITLE8=Fools (1982 - 02 Round Up Saloon FZ 37734)
TTITLE9=Tennessee, You're A Lady (1982 - 05 Round Up Saloon FZ 37734)
TTITLE10=The Spirit Of The West (1982 - 03 Round Up Saloon FZ 37734)
TTITLE11=Outrun The Sun (1982 - 07 Round Up Saloon FZ 37734)
TTITLE12=Merci - Thank You (1982 - 04 Round Up Saloon FZ 37734)
TTITLE13=You'll Never Find Nobody (1982 - 08 Round Up Saloon FZ 37734)
TTITLE14=Hit And Run Lover (1982 - 10 Round Up Saloon FZ 37734)
TTITLE15=Love Is Only For Fools (1982 - 09 Round Up Saloon FZ 37734)
EXTD=
EXTT0=
EXTT1=
EXTT2=
EXTT3=
EXTT4=
EXTT5=
EXTT6=
EXTT7=
EXTT8=
EXTT9=
EXTT10=
EXTT11=
EXTT12=
EXTT13=
EXTT14=
EXTT15=
PLAYORDER=
